# xmcd
#
# Track frame offsets: 
#        150
#        16808
#        32335
#        47071
#        65796
#        81053
#        104384
#        123512
#        137952
#        156024
#        170168
#        183589
#        204104
#
# Disc length: 2813 seconds
#
# Revision: 0
# Processed by: cddbd v1.5.2PL0 Copyright (c) Steve Scherf et al.
# Submitted via: ExactAudioCopy v0.95b4
#
DISCID=ad0afb0d
DTITLE=Макsим - Трудный возраст
DYEAR=2006
DGENRE=Pop
TTITLE0=Трудный возраст
TTITLE1=Сантиметры дыхания
TTITLE2=Нежность
TTITLE3=Лолита
TTITLE4=Сон
TTITLE5=Пам-парам
TTITLE6=Отпускаю
TTITLE7=Ветром стать
TTITLE8=Знаешь ли ты
TTITLE9=Сантиметры дыхания (remix)
TTITLE10=Трудный возраст (slow version)
TTITLE11=Нежность (remix acid-jazz)
TTITLE12=Небо цвета молока
EXTD=
EXTT0=
EXTT1=
EXTT2=
EXTT3=
EXTT4=
EXTT5=
EXTT6=
EXTT7=
EXTT8=
EXTT9=
EXTT10=
EXTT11=
EXTT12=
PLAYORDER=
